# xmcd CD database file
#
# Track frame offsets:
#	150
#	13432
#	21110
#	30965
#	41650
#	51697
#	62195
#	75305
#	84562
#	97195
#	108177
#	116717
#	126882
#	139872
#	149397
#	162190
#	176665
#	186730
#
# Disc length: 2614 seconds
#
# Revision: 1
# Processed by: cddbd v1.4PL0 Copyright (c) Steve Scherf et al.
# Submitted via: CDex 1.40Release
#
DISCID=050a3412
DTITLE=Faron Young - Famous Country Music Makers
DYEAR=1999
DGENRE=Country
TTITLE0=The Tips of My Fingers
TTITLE1=Tennessee Border
TTITLE2=Nothing Left to Lose
TTITLE3=Life Is a Picture
TTITLE4=King of the Road
TTITLE5=Memphis
TTITLE6=Almost Persuaded
TTITLE7=Live Fast, Love Hard,  Die Young
TTITLE8=Apartment Number 9
TTITLE9=Crying Time
TTITLE10=Together Again
TTITLE11=As Far As I'm Concerned
TTITLE12=Moments to Remember
TTITLE13=(Remember Me) I'm the One Who Loves You
TTITLE14=There Goes My Everything
TTITLE15=Saginaw Michigan
TTITLE16=Yonder Comes a Sucker
TTITLE17=Some of These Memories
EXTD=YEAR: 1999 ID3G: 2
EXTT0=
EXTT1=
EXTT2=
EXTT3=
EXTT4=
EXTT5=
EXTT6=
EXTT7=
EXTT8=
EXTT9=
EXTT10=
EXTT11=
EXTT12=
EXTT13=
EXTT14=
EXTT15=
EXTT16=
EXTT17=
PLAYORDER=
